<svg width="227" height="40" viewBox="0 0 227 40" fill="none" xmlns="http://www.w3.org/2000/svg">
<path d="M24.3784 0.0152909C26.8147 -0.0050965 29.2561 0.0152905 31.6924 0C33.0329 6.99288 34.1644 14.0265 35.4437 21.0296C38.9758 22.5485 42.671 23.6341 46.2031 25.1478C45.0258 27.3038 43.7414 29.4037 42.5793 31.5699C38.0125 29.9236 33.4355 28.2875 28.884 26.5954C28.3693 22.2681 27.3091 18.0327 26.6924 13.7207C26.0604 9.12846 24.8779 4.62794 24.3784 0.0152909Z" fill="white"/>
<path d="M14.6789 0.0153809C17.1305 0.0204777 19.5821 0.0204777 22.0337 0.0153809C22.0796 0.382354 22.1713 1.1214 22.2172 1.48837C23.0581 5.63211 23.7411 9.80133 24.5515 13.9451C17.6453 19.8676 10.6983 25.7494 3.69012 31.5547C2.44649 29.4293 1.23853 27.2835 0 25.153C5.45873 20.4079 11.0041 15.7646 16.5393 11.1112C15.8461 7.4262 15.1631 3.73608 14.6789 0.0153809Z" fill="white"/>
<path d="M201.055 6.86544C206.168 5.37716 211.54 5.66258 216.8 5.70336C219.343 5.81039 222.111 5.91743 224.277 7.421C225.979 8.75637 226.045 11.0449 226.076 13.0173C224.292 13.0377 222.513 12.997 220.734 13.0428C220.551 12.3293 220.367 11.6208 220.179 10.9123C217.804 9.60245 215.016 9.82671 212.401 9.79103C210.031 9.87258 207.59 9.73497 205.296 10.4536C203.532 10.9174 202.906 13.4608 204.21 14.6993C205.321 15.7187 206.937 15.5148 208.324 15.5912C212.773 15.576 217.218 15.5658 221.652 15.9633C223.64 16.0907 225.648 17.2477 226.346 19.1896C227.075 21.4985 227.019 24.0316 226.249 26.3252C225.49 28.4251 223.191 29.3731 221.132 29.6229C214.807 30.3772 208.395 30.2957 202.075 29.5872C200.551 28.9909 199.236 27.9766 198.42 26.5444C198.293 25.102 198.232 23.6545 198.222 22.207C199.965 22.2121 201.708 22.2172 203.451 22.2121C203.665 23.3945 203.629 25.0714 205.062 25.474C206.453 25.7697 207.89 25.7748 209.302 25.9735C210.52 25.9735 211.744 25.9735 212.967 25.9633C215.281 25.5352 217.758 25.9735 219.975 25.0765C221.29 24.4496 221.346 22.8441 221.407 21.5851C220.658 20.79 219.72 20.1274 218.594 20.0714C213.329 19.5974 207.987 20.3517 202.748 19.5056C200.704 19.261 198.675 17.8593 198.369 15.7136C198.023 12.63 197.931 8.60346 201.055 6.86544Z" fill="white"/>
<path d="M58.7412 29.8115C58.7514 21.8349 58.7361 13.8584 58.7463 5.8818C61.5547 5.87161 64.363 5.88181 67.1714 5.87671C73.2061 12.4465 79.0827 19.154 85.1225 25.7136C85.0919 19.103 85.097 12.4924 85.0766 5.8818C86.7994 5.87671 88.5221 5.87671 90.2448 5.8818C90.2499 13.8584 90.2448 21.8349 90.2499 29.8115C87.3957 29.8013 84.5466 29.8064 81.6974 29.8064C75.78 23.2111 69.8625 16.6158 63.9196 10.051C63.8584 16.6362 63.9502 23.2213 63.9604 29.8115C62.2224 29.8064 60.4792 29.8013 58.7412 29.8115Z" fill="white"/>
<path d="M96.5547 29.7911C96.5547 21.8247 96.5598 13.8583 96.5547 5.89194C105.015 5.85626 113.476 5.89704 121.937 5.86646C121.942 7.2528 121.947 8.63404 121.947 10.0204C114.613 10 107.273 10.0459 99.939 9.9949C100.632 10.5097 101.33 11.0245 102.039 11.524C102.039 12.9613 102.039 14.3986 102.059 15.8359C108.369 15.8104 114.679 15.8461 120.994 15.8053C120.989 17.0387 120.989 18.2671 120.984 19.5005C114.022 19.4801 107.059 19.4852 100.102 19.4903C100.719 20.0051 101.427 20.4332 101.973 21.0398C102.136 22.5586 102.013 24.0928 102.044 25.6167C108.721 25.576 115.398 25.6218 122.075 25.5913C122.064 26.998 122.064 28.4047 122.08 29.8165C113.573 29.786 105.061 29.8318 96.5547 29.7911Z" fill="white"/>
<path d="M126.636 5.8664C129.088 5.8562 131.545 5.86639 133.996 5.8562C136.963 8.83786 139.842 11.9011 142.804 14.8827C145.846 11.9469 148.726 8.84295 151.718 5.8562C154.144 5.86639 156.575 5.8562 159.001 5.8664C155.077 9.70942 151.269 13.6697 147.345 17.5178C151.58 21.5443 155.663 25.7237 159.842 29.8114C157.299 29.8267 154.756 29.8267 152.212 29.8012C149.251 26.7125 146.29 23.6187 143.262 20.5963C142.849 20.0509 142.263 20.8002 141.927 21.0601C139.378 23.6289 136.856 26.2283 134.333 28.8226C133.879 29.1641 133.537 29.8522 132.885 29.7961C130.561 29.8522 128.232 29.791 125.907 29.791C130.041 25.7135 134.159 21.6106 138.308 17.5433C134.363 13.7053 130.571 9.70942 126.636 5.8664Z" fill="white"/>
<path d="M163.329 24.9338C163.018 18.5832 163.247 12.2223 163.186 5.86652C165.031 5.86652 166.876 5.86143 168.726 5.86652C168.752 11.0041 168.747 16.1367 168.772 21.2692C168.716 22.3905 169.108 23.4405 169.526 24.4598C170.551 24.8778 171.616 25.1938 172.697 25.4588C175.928 25.6321 179.164 25.5557 182.401 25.5251C184.282 25.3416 186.448 25.0867 187.126 22.9919C187.243 17.2835 187.192 11.5801 187.207 5.87162C189.063 5.88181 190.918 5.87672 192.778 5.86652C192.732 11.2794 192.829 16.6973 192.768 22.1102C192.656 24.0215 192.498 26.1469 191.178 27.6556C189.129 29.6943 186.081 29.9746 183.349 30.1275C179.256 30.1581 175.163 30.2142 171.076 30.0613C169.078 29.6586 166.871 29.5516 165.26 28.1449C164.221 27.3599 163.813 26.0806 163.329 24.9338Z" fill="white"/>
<path d="M4.83691 33.5372C8.54232 30.423 12.2324 27.2936 15.9277 24.1692C24.4088 27.3241 32.9002 30.4587 41.4272 33.5066C40.1938 35.683 38.9348 37.844 37.6606 40C30.8512 37.6147 24.1132 35.0408 17.314 32.6249C14.4343 35.0815 11.6259 37.6504 8.56271 39.8726C7.18656 37.844 6.06525 35.6575 4.83691 33.5372Z" fill="white"/>
</svg>
